<svg id="图层_1" data-name="图层 1" xmlns="http://www.w3.org/2000/svg" xmlns:xlink="http://www.w3.org/1999/xlink" viewBox="0 0 54.67 39.9"><defs><style>.cls-1{fill:url(#未命名的渐变_11);}.cls-2{fill:#fff;}</style><linearGradient id="未命名的渐变_11" x1="47.47" y1="13.01" x2="59.49" y2="13.01" gradientUnits="userSpaceOnUse"><stop offset="0" stop-color="#a166ff"/><stop offset="1" stop-color="#7878ff"/></linearGradient></defs><title>Header_logo</title><path class="cls-1" d="M59.07,7H47.9a.42.42,0,0,0-.42.42v4a.42.42,0,0,0,.42.42h6.74a0,0,0,0,1,0,0v6.74a.42.42,0,0,0,.42.42h4a.42.42,0,0,0,.42-.42V7.42A.42.42,0,0,0,59.07,7Z" transform="translate(-20.62 -7)"/><path class="cls-2" d="M58.61,22.86H43.68a0,0,0,0,1,0,0V7.88a.42.42,0,0,0-.69-.33l-6.36,5.09a.42.42,0,0,0-.16.33V29.65a.42.42,0,0,0,.42.42H53.52a.42.42,0,0,0,.33-.16l5.09-6.36A.42.42,0,0,0,58.61,22.86Z" transform="translate(-20.62 -7)"/><path class="cls-2" d="M22.19,37.89H20.92a.3.3,0,0,0-.3.3V46.6a.3.3,0,0,0,.3.3h5.29a.3.3,0,0,0,.3-.3v-1a.3.3,0,0,0-.3-.3H22.78a.3.3,0,0,1-.3-.3V38.19A.3.3,0,0,0,22.19,37.89Z" transform="translate(-20.62 -7)"/><path class="cls-2" d="M29.44,43h2.77a.3.3,0,0,0,.3-.3v-1a.3.3,0,0,0-.3-.3H29.44a.3.3,0,0,1-.3-.3v-1.4a.3.3,0,0,1,.3-.3h3.33a.3.3,0,0,0,.3-.3v-1a.3.3,0,0,0-.3-.3H27.58a.3.3,0,0,0-.3.3V46.6a.3.3,0,0,0,.3.3h5.23a.3.3,0,0,0,.3-.3v-1a.3.3,0,0,0-.3-.3H29.44a.3.3,0,0,1-.3-.3V43.34A.3.3,0,0,1,29.44,43Z" transform="translate(-20.62 -7)"/><path class="cls-2" d="M38.68,42.69,35.82,38a.3.3,0,0,0-.25-.14H34.26a.3.3,0,0,0-.3.3V46.6a.3.3,0,0,0,.3.3h1.27a.3.3,0,0,0,.3-.3V42.25a.3.3,0,0,1,.55-.15l2.87,4.66a.3.3,0,0,0,.25.14H40.8a.3.3,0,0,0,.3-.3V38.19a.3.3,0,0,0-.3-.3H39.52a.3.3,0,0,0-.3.3v4.35A.3.3,0,0,1,38.68,42.69Z" transform="translate(-20.62 -7)"/><path class="cls-2" d="M45.51,37.89H42.76a.3.3,0,0,0-.3.3V46.6a.3.3,0,0,0,.3.3h2.75a3.83,3.83,0,0,0,2.81-1.08A3.75,3.75,0,0,0,49.4,43v-1.3A3.77,3.77,0,0,0,48.32,39,3.82,3.82,0,0,0,45.51,37.89Zm-1.19,1.87a.3.3,0,0,1,.3-.3h.89A1.84,1.84,0,0,1,47,40.1a2.42,2.42,0,0,1,.55,1.64V43A2.44,2.44,0,0,1,47,44.7a1.84,1.84,0,0,1-1.47.62h-.89a.3.3,0,0,1-.3-.3Z" transform="translate(-20.62 -7)"/><path class="cls-2" d="M55.57,41.66H52.7a.3.3,0,0,1-.3-.3v-1.6a.3.3,0,0,1,.3-.3h3.47a.3.3,0,0,0,.3-.3v-1a.3.3,0,0,0-.3-.3H50.84a.3.3,0,0,0-.3.3V46.6a.3.3,0,0,0,.3.3h1.27a.3.3,0,0,0,.3-.3V43.54a.3.3,0,0,1,.3-.3h2.87a.3.3,0,0,0,.3-.3V42A.3.3,0,0,0,55.57,41.66Z" transform="translate(-20.62 -7)"/><rect class="cls-2" x="34.99" y="38.1" width="1.86" height="1.8" rx="0.3" ry="0.3"/><path class="cls-2" d="M63.28,43.4l-2-5.32a.3.3,0,0,0-.28-.19H59.27a.3.3,0,0,0-.3.3V46.6a.3.3,0,0,0,.3.3h1.27a.3.3,0,0,0,.3-.3V43.07a.3.3,0,0,1,.57-.11l1.43,3.74a.3.3,0,0,0,.28.19H64a.3.3,0,0,0,.28-.19l1.39-3.63a.3.3,0,0,1,.57.11V46.6a.3.3,0,0,0,.3.3H67.8a.3.3,0,0,0,.3-.3V38.19a.3.3,0,0,0-.3-.3H66.1a.3.3,0,0,0-.28.19l-2,5.32A.3.3,0,0,1,63.28,43.4Z" transform="translate(-20.62 -7)"/><path class="cls-2" d="M71.33,45V43.34a.3.3,0,0,1,.3-.3h2.77a.3.3,0,0,0,.3-.3v-1a.3.3,0,0,0-.3-.3H71.63a.3.3,0,0,1-.3-.3v-1.4a.3.3,0,0,1,.3-.3H75a.3.3,0,0,0,.3-.3v-1a.3.3,0,0,0-.3-.3H69.76a.3.3,0,0,0-.3.3V46.6a.3.3,0,0,0,.3.3H75a.3.3,0,0,0,.3-.3v-1a.3.3,0,0,0-.3-.3H71.63A.3.3,0,0,1,71.33,45Z" transform="translate(-20.62 -7)"/></svg>