<svg id="图层_1" data-name="图层 1" xmlns="http://www.w3.org/2000/svg" xmlns:xlink="http://www.w3.org/1999/xlink" viewBox="0 0 550.44 142.45"><defs><style>.cls-1{fill:url(#未命名的渐变_11);}.cls-2{fill:#fff;}</style><linearGradient id="未命名的渐变_11" x1="433.82" y1="166.07" x2="508.02" y2="166.07" gradientUnits="userSpaceOnUse"><stop offset="0" stop-color="#a166ff"/><stop offset="1" stop-color="#7878ff"/></linearGradient></defs><title>logo</title><path class="cls-1" d="M504.41,129h-67a3.61,3.61,0,0,0-3.61,3.61V155a3.61,3.61,0,0,0,3.61,3.61h39.63a1.28,1.28,0,0,1,1.28,1.28v39.63a3.61,3.61,0,0,0,3.61,3.61h22.46a3.61,3.61,0,0,0,3.61-3.61v-67A3.61,3.61,0,0,0,504.41,129Z" transform="translate(-365.56 -128.98)"/><path class="cls-2" d="M500.5,226.91H411.36a1.28,1.28,0,0,1-1.28-1.28V136.49a3.61,3.61,0,0,0-5.87-2.82l-37.29,29.83a3.61,3.61,0,0,0-1.36,2.82V267.82a3.61,3.61,0,0,0,3.61,3.61H470.67a3.61,3.61,0,0,0,2.82-1.36l29.83-37.29A3.61,3.61,0,0,0,500.5,226.91Z" transform="translate(-365.56 -128.98)"/><path class="cls-2" d="M571.73,171h-8.25a1.91,1.91,0,0,0-1.91,1.91v54.57a1.91,1.91,0,0,0,1.91,1.91h34.29a1.91,1.91,0,0,0,1.91-1.91v-6.37a1.91,1.91,0,0,0-1.91-1.91H575.55a1.91,1.91,0,0,1-1.91-1.91V172.92A1.91,1.91,0,0,0,571.73,171Z" transform="translate(-365.56 -128.98)"/><path class="cls-2" d="M618.75,204.39h17.94a1.91,1.91,0,0,0,1.91-1.91v-6.41a1.91,1.91,0,0,0-1.91-1.91H618.75a1.91,1.91,0,0,1-1.91-1.91v-9.08a1.91,1.91,0,0,1,1.91-1.91h21.57a1.91,1.91,0,0,0,1.91-1.91v-6.41a1.91,1.91,0,0,0-1.91-1.91H606.67a1.91,1.91,0,0,0-1.91,1.91v54.57a1.91,1.91,0,0,0,1.91,1.91h33.91a1.91,1.91,0,0,0,1.91-1.91v-6.37a1.91,1.91,0,0,0-1.91-1.91H618.75a1.91,1.91,0,0,1-1.91-1.91v-11A1.91,1.91,0,0,1,618.75,204.39Z" transform="translate(-365.56 -128.98)"/><path class="cls-2" d="M678.66,202.14l-18.58-30.22a1.91,1.91,0,0,0-1.63-.91H650a1.91,1.91,0,0,0-1.91,1.91v54.57A1.91,1.91,0,0,0,650,229.4h8.25a1.91,1.91,0,0,0,1.91-1.91V199.28a1.91,1.91,0,0,1,3.54-1l18.58,30.22a1.91,1.91,0,0,0,1.63.91h8.47a1.91,1.91,0,0,0,1.91-1.91V172.92a1.91,1.91,0,0,0-1.91-1.91h-8.25a1.91,1.91,0,0,0-1.91,1.91v28.21A1.91,1.91,0,0,1,678.66,202.14Z" transform="translate(-365.56 -128.98)"/><path class="cls-2" d="M722.94,171H705.08a1.91,1.91,0,0,0-1.91,1.91v54.57a1.91,1.91,0,0,0,1.91,1.91h17.85c7.4,0,13.52-2.35,18.19-7s7-10.68,7-18V196c0-7.28-2.37-13.33-7-18S730.34,171,722.94,171Zm-7.69,12.15a1.91,1.91,0,0,1,1.91-1.91h5.78a11.92,11.92,0,0,1,9.56,4,15.7,15.7,0,0,1,3.59,10.64v8.52a15.81,15.81,0,0,1-3.59,10.71,11.91,11.91,0,0,1-9.56,4h-5.78a1.91,1.91,0,0,1-1.91-1.91Z" transform="translate(-365.56 -128.98)"/><path class="cls-2" d="M788.14,195.45H769.55a1.91,1.91,0,0,1-1.91-1.91V183.16a1.91,1.91,0,0,1,1.91-1.91H792a1.91,1.91,0,0,0,1.91-1.91v-6.41A1.91,1.91,0,0,0,792,171H757.48a1.91,1.91,0,0,0-1.91,1.91v54.57a1.91,1.91,0,0,0,1.91,1.91h8.25a1.91,1.91,0,0,0,1.91-1.91V207.6a1.91,1.91,0,0,1,1.91-1.91h18.59a1.91,1.91,0,0,0,1.91-1.91v-6.41A1.91,1.91,0,0,0,788.14,195.45Z" transform="translate(-365.56 -128.98)"/><rect class="cls-2" x="422.84" y="88.73" width="12.03" height="11.69" rx="1.91" ry="1.91"/><path class="cls-2" d="M838.12,206.71l-12.86-34.46a1.91,1.91,0,0,0-1.79-1.24H812.16a1.91,1.91,0,0,0-1.91,1.91v54.57a1.91,1.91,0,0,0,1.91,1.91h8.25a1.91,1.91,0,0,0,1.91-1.91V204.58a1.91,1.91,0,0,1,3.7-.68l9.28,24.27a1.91,1.91,0,0,0,1.79,1.23h5.67a1.91,1.91,0,0,0,1.79-1.23l9-23.54a1.91,1.91,0,0,1,3.7.68v22.17a1.91,1.91,0,0,0,1.91,1.91h8.25a1.91,1.91,0,0,0,1.91-1.91V172.92a1.91,1.91,0,0,0-1.91-1.91h-11a1.91,1.91,0,0,0-1.79,1.24l-13,34.47A1.91,1.91,0,0,1,838.12,206.71Z" transform="translate(-365.56 -128.98)"/><path class="cls-2" d="M890.34,217.29v-11a1.91,1.91,0,0,1,1.91-1.91h17.94a1.91,1.91,0,0,0,1.91-1.91v-6.41a1.91,1.91,0,0,0-1.91-1.91H892.25a1.91,1.91,0,0,1-1.91-1.91v-9.08a1.91,1.91,0,0,1,1.91-1.91h21.57a1.91,1.91,0,0,0,1.91-1.91v-6.41a1.91,1.91,0,0,0-1.91-1.91H880.18a1.91,1.91,0,0,0-1.91,1.91v54.57a1.91,1.91,0,0,0,1.91,1.91h33.91a1.91,1.91,0,0,0,1.91-1.91v-6.37a1.91,1.91,0,0,0-1.91-1.91H892.25A1.91,1.91,0,0,1,890.34,217.29Z" transform="translate(-365.56 -128.98)"/></svg>