<svg id="图层_1" data-name="图层 1" xmlns="http://www.w3.org/2000/svg" xmlns:xlink="http://www.w3.org/1999/xlink" viewBox="0 0 76.73 54"><defs><style>.cls-1{fill:url(#未命名的渐变_11);}.cls-2{fill:#fff;}</style><linearGradient id="未命名的渐变_11" x1="384.51" y1="78.32" x2="401.38" y2="78.32" gradientUnits="userSpaceOnUse"><stop offset="0" stop-color="#a166ff"/><stop offset="1" stop-color="#7878ff"/></linearGradient></defs><title>lendf_logo2</title><path class="cls-1" d="M400.78,69.88H385.11a.6.6,0,0,0-.6.6V76a.6.6,0,0,0,.6.6h9.46a.07.07,0,0,1,.07.07v9.46a.6.6,0,0,0,.6.6h5.56a.6.6,0,0,0,.6-.6V70.48A.6.6,0,0,0,400.78,69.88Z" transform="translate(-346.82 -69.88)"/><path class="cls-2" d="M400.14,92.15h-21a.07.07,0,0,1-.07-.07v-21a.6.6,0,0,0-1-.47l-8.93,7.14a.6.6,0,0,0-.22.47v23.41a.6.6,0,0,0,.6.6H393a.6.6,0,0,0,.47-.22l7.14-8.93A.6.6,0,0,0,400.14,92.15Z" transform="translate(-346.82 -69.88)"/><path class="cls-2" d="M349,111.24h-1.79a.41.41,0,0,0-.41.41v11.81a.41.41,0,0,0,.41.41h7.42a.41.41,0,0,0,.41-.41v-1.38a.41.41,0,0,0-.41-.41h-4.81a.41.41,0,0,1-.41-.41v-9.6A.41.41,0,0,0,349,111.24Z" transform="translate(-346.82 -69.88)"/><path class="cls-2" d="M359.2,118.47h3.88a.41.41,0,0,0,.41-.41v-1.39a.41.41,0,0,0-.41-.41H359.2a.41.41,0,0,1-.41-.41v-2a.41.41,0,0,1,.41-.41h4.67a.41.41,0,0,0,.41-.41v-1.39a.41.41,0,0,0-.41-.41h-7.28a.41.41,0,0,0-.41.41v11.81a.41.41,0,0,0,.41.41h7.34a.41.41,0,0,0,.41-.41v-1.38a.41.41,0,0,0-.41-.41H359.2a.41.41,0,0,1-.41-.41v-2.38A.41.41,0,0,1,359.2,118.47Z" transform="translate(-346.82 -69.88)"/><path class="cls-2" d="M372.17,118l-4-6.54a.41.41,0,0,0-.35-.2H366a.41.41,0,0,0-.41.41v11.81a.41.41,0,0,0,.41.41h1.79a.41.41,0,0,0,.41-.41v-6.11a.41.41,0,0,1,.77-.22l4,6.54a.41.41,0,0,0,.35.2h1.83a.41.41,0,0,0,.41-.41V111.65a.41.41,0,0,0-.41-.41h-1.79a.41.41,0,0,0-.41.41v6.11A.41.41,0,0,1,372.17,118Z" transform="translate(-346.82 -69.88)"/><path class="cls-2" d="M381.75,111.24h-3.86a.41.41,0,0,0-.41.41v11.81a.41.41,0,0,0,.41.41h3.86a5.38,5.38,0,0,0,3.94-1.51,5.27,5.27,0,0,0,1.52-3.89v-1.83a5.29,5.29,0,0,0-1.52-3.89A5.36,5.36,0,0,0,381.75,111.24Zm-1.67,2.63a.41.41,0,0,1,.41-.41h1.25a2.58,2.58,0,0,1,2.07.88,3.4,3.4,0,0,1,.78,2.3v1.84a3.42,3.42,0,0,1-.78,2.32,2.58,2.58,0,0,1-2.07.88H380.5a.41.41,0,0,1-.41-.41Z" transform="translate(-346.82 -69.88)"/><path class="cls-2" d="M395.87,116.53h-4a.41.41,0,0,1-.41-.41v-2.25a.41.41,0,0,1,.41-.41h4.87a.41.41,0,0,0,.41-.41v-1.39a.41.41,0,0,0-.41-.41h-7.48a.41.41,0,0,0-.41.41v11.81a.41.41,0,0,0,.41.41H391a.41.41,0,0,0,.41-.41v-4.31a.41.41,0,0,1,.41-.41h4a.41.41,0,0,0,.41-.41v-1.39A.41.41,0,0,0,395.87,116.53Z" transform="translate(-346.82 -69.88)"/><rect class="cls-2" x="49.11" y="51.47" width="2.61" height="2.53" rx="0.41" ry="0.41"/><path class="cls-2" d="M406.69,119l-2.78-7.46a.41.41,0,0,0-.39-.27h-2.45a.41.41,0,0,0-.41.41v11.81a.41.41,0,0,0,.41.41h1.79a.41.41,0,0,0,.41-.41v-5a.41.41,0,0,1,.8-.15l2,5.25a.41.41,0,0,0,.39.27h1.23a.41.41,0,0,0,.39-.27l2-5.1a.41.41,0,0,1,.8.15v4.8a.41.41,0,0,0,.41.41H413a.41.41,0,0,0,.41-.41V111.65a.41.41,0,0,0-.41-.41h-2.37a.41.41,0,0,0-.39.27l-2.8,7.46A.41.41,0,0,1,406.69,119Z" transform="translate(-346.82 -69.88)"/><path class="cls-2" d="M418,121.26v-2.38a.41.41,0,0,1,.41-.41h3.88a.41.41,0,0,0,.41-.41v-1.39a.41.41,0,0,0-.41-.41h-3.88a.41.41,0,0,1-.41-.41v-2a.41.41,0,0,1,.41-.41h4.67a.41.41,0,0,0,.41-.41v-1.39a.41.41,0,0,0-.41-.41h-7.28a.41.41,0,0,0-.41.41v11.81a.41.41,0,0,0,.41.41h7.34a.41.41,0,0,0,.41-.41v-1.38a.41.41,0,0,0-.41-.41h-4.73A.41.41,0,0,1,418,121.26Z" transform="translate(-346.82 -69.88)"/></svg>